<?xml version="1.0" encoding="UTF-8" standalone="no"?>
<!-- Created with Inkscape (http://www.inkscape.org/) -->

<svg
   width="64pt"
   height="64pt"
   viewBox="0 0 22.577778 22.577778"
   version="1.1"
   id="svg831"
   inkscape:version="1.1.1 (3bf5ae0d25, 2021-09-20)"
   sodipodi:docname="Export - Unblash - 64px.svg"
   inkscape:export-filename="C:\Users\User\Desktop\CARLOS PROJECT\3. MARET 1\EXPORT\FILEDLINE\13 - Picture File.png"
   inkscape:export-xdpi="576"
   inkscape:export-ydpi="576"
   xmlns:inkscape="http://www.inkscape.org/namespaces/inkscape"
   xmlns:sodipodi="http://sodipodi.sourceforge.net/DTD/sodipodi-0.dtd"
   xmlns="http://www.w3.org/2000/svg"
   xmlns:svg="http://www.w3.org/2000/svg"
   xmlns:rdf="http://www.w3.org/1999/02/22-rdf-syntax-ns#"
   xmlns:cc="http://creativecommons.org/ns#"
   xmlns:dc="http://purl.org/dc/elements/1.1/">
  <defs
     id="defs825">
    <pattern
       id="EMFhbasepattern"
       patternUnits="userSpaceOnUse"
       width="6"
       height="6"
       x="0"
       y="0" />
    <pattern
       id="EMFhbasepattern-9"
       patternUnits="userSpaceOnUse"
       width="6"
       height="6"
       x="0"
       y="0" />
    <pattern
       id="EMFhbasepattern-0"
       patternUnits="userSpaceOnUse"
       width="6"
       height="6"
       x="0"
       y="0" />
    <pattern
       id="EMFhbasepattern-7"
       patternUnits="userSpaceOnUse"
       width="6"
       height="6"
       x="0"
       y="0" />
    <pattern
       id="EMFhbasepattern-2"
       patternUnits="userSpaceOnUse"
       width="6"
       height="6"
       x="0"
       y="0" />
    <pattern
       id="EMFhbasepattern-98"
       patternUnits="userSpaceOnUse"
       width="6"
       height="6"
       x="0"
       y="0" />
    <pattern
       id="EMFhbasepattern-6"
       patternUnits="userSpaceOnUse"
       width="6"
       height="6"
       x="0"
       y="0" />
    <pattern
       id="EMFhbasepattern-01"
       patternUnits="userSpaceOnUse"
       width="6"
       height="6"
       x="0"
       y="0" />
    <pattern
       id="EMFhbasepattern-07"
       patternUnits="userSpaceOnUse"
       width="6"
       height="6"
       x="0"
       y="0" />
    <pattern
       id="EMFhbasepattern-8"
       patternUnits="userSpaceOnUse"
       width="6"
       height="6"
       x="0"
       y="0" />
    <pattern
       id="EMFhbasepattern-4"
       patternUnits="userSpaceOnUse"
       width="6"
       height="6"
       x="0"
       y="0" />
    <pattern
       id="EMFhbasepattern-40"
       patternUnits="userSpaceOnUse"
       width="6"
       height="6"
       x="0"
       y="0" />
    <pattern
       id="EMFhbasepattern-08"
       patternUnits="userSpaceOnUse"
       width="6"
       height="6"
       x="0"
       y="0" />
    <pattern
       id="EMFhbasepattern-04"
       patternUnits="userSpaceOnUse"
       width="6"
       height="6"
       x="0"
       y="0" />
    <pattern
       id="EMFhbasepattern-014"
       patternUnits="userSpaceOnUse"
       width="6"
       height="6"
       x="0"
       y="0" />
    <pattern
       id="EMFhbasepattern-27"
       patternUnits="userSpaceOnUse"
       width="6"
       height="6"
       x="0"
       y="0" />
    <pattern
       id="EMFhbasepattern-09"
       patternUnits="userSpaceOnUse"
       width="6"
       height="6"
       x="0"
       y="0" />
    <pattern
       id="EMFhbasepattern-5"
       patternUnits="userSpaceOnUse"
       width="6"
       height="6"
       x="0"
       y="0" />
    <pattern
       id="EMFhbasepattern-018"
       patternUnits="userSpaceOnUse"
       width="6"
       height="6"
       x="0"
       y="0" />
  </defs>
  <sodipodi:namedview
     id="base"
     pagecolor="#ffffff"
     bordercolor="#666666"
     borderopacity="1.0"
     inkscape:pageopacity="0.0"
     inkscape:pageshadow="2"
     inkscape:zoom="9.1757812"
     inkscape:cx="42.612175"
     inkscape:cy="42.666667"
     inkscape:document-units="pt"
     inkscape:current-layer="layer1"
     showgrid="false"
     units="pt"
     inkscape:window-width="1920"
     inkscape:window-height="1001"
     inkscape:window-x="-9"
     inkscape:window-y="41"
     inkscape:window-maximized="1"
     inkscape:pagecheckerboard="true"
     inkscape:showpageshadow="false"
     inkscape:object-paths="true"
     inkscape:snap-intersection-paths="true"
     inkscape:snap-smooth-nodes="true"
     inkscape:snap-midpoints="true"
     showguides="true"
     inkscape:snap-bbox="true"
     inkscape:bbox-nodes="true"
     inkscape:snap-nodes="false"
     inkscape:snap-global="true">
    <inkscape:grid
       type="xygrid"
       id="grid1378" />
    <sodipodi:guide
       position="0.97013831,21.607643"
       orientation="78.000048,0"
       id="guide1380"
       inkscape:locked="false" />
    <sodipodi:guide
       position="0.97013831,0.97013129"
       orientation="0,78.000005"
       id="guide1382"
       inkscape:locked="false" />
    <sodipodi:guide
       position="21.607639,0.97013129"
       orientation="-78.000048,0"
       id="guide1384"
       inkscape:locked="false" />
    <sodipodi:guide
       position="21.607639,21.607643"
       orientation="0,-78.000005"
       id="guide1386"
       inkscape:locked="false" />
  </sodipodi:namedview>
  <metadata
     id="metadata828">
    <rdf:RDF>
      <cc:Work
         rdf:about="">
        <dc:format>image/svg+xml</dc:format>
        <dc:type
           rdf:resource="http://purl.org/dc/dcmitype/StillImage" />
      </cc:Work>
    </rdf:RDF>
  </metadata>
  <g
     inkscape:label="Icon"
     inkscape:groupmode="layer"
     id="layer1"
     transform="translate(0,-274.42223)">
    <g
       id="g19491"
       style="display:inline;strokeWidth:0.793081"
       transform="matrix(1.2609057,0,0,1.2609057,0.61306624,-118.1358)">
      <g
         id="g15825"
         style="strokeWidth:0.793081">
        <path
           style="color:#000000;fill:#cccccc;strokeWidth:0.793081;strokeLinecap:round;strokeLinejoin:round;-inkscape-stroke:none"
           d="m 14.6875,317.27734 a 0.26460996,0.26460996 0 0 0 -0.148437,0.0469 l -10.7460942,7.30859 a 0.26460996,0.26460996 0 0 0 -0.1152344,0.21875 v 1.21875 c 2.9e-6,0.46919 0.3637109,0.87305 0.8300781,0.87305 H 15.820313 c 0.466367,0 0.830075,-0.40386 0.830078,-0.87305 v -7.91797 c -3e-6,-0.46918 -0.363711,-0.875 -0.830078,-0.875 z"
           id="path340839" />
        <path
           style="color:#000000;fill:#cccccc;strokeWidth:0.793081;strokeLinecap:round;strokeLinejoin:round;-inkscape-stroke:none"
           d="m 1.1132812,313.62305 c -0.46636716,0 -0.83007534,0.40386 -0.83007807,0.87304 v 7.91993 c 2.73e-6,0.46918 0.36371091,0.87304 0.83007807,0.87304 h 1.1308594 a 0.26460996,0.26460996 0 0 0 0.1503907,-0.0469 l 10.7460937,-7.3086 a 0.26460996,0.26460996 0 0 0 0.115234,-0.21875 v -1.21875 c -10e-7,-0.46918 -0.36371,-0.87304 -0.830078,-0.87304 z"
           id="path340647" />
        <path
           id="path44119"
           style="fill:#bfbfbf;fill-opacity:1;strokeWidth:2.99747;strokeLinecap:round;strokeLinejoin:round"
           d="m 55.511719,140.63867 a 1.0001006,1.0001006 0 0 0 -0.560547,0.17774 l -40.615234,27.62304 a 1.0001006,1.0001006 0 0 0 -0.435547,0.82617 v 3.58008 h 39.478515 c 3.256101,0 5.712891,-2.7791 5.712891,-5.88281 v -26.32422 z"
           transform="matrix(0.26458334,0,0,0.26458334,0,280.06666)" />
        <path
           id="path44240"
           style="fill:#bfbfbf;fill-opacity:1;strokeWidth:2.99747;strokeLinecap:round;strokeLinejoin:round"
           d="m 10.623047,131.16016 c -3.2488895,0 -5.7148473,2.7732 -5.7148439,5.87695 v 26.32227 h 3.5742188 a 1.0001006,1.0001006 0 0 0 0.5683593,-0.17579 L 49.666016,135.56055 a 1.0001006,1.0001006 0 0 0 0.435546,-0.82813 v -3.57226 z"
           transform="matrix(0.26458334,0,0,0.26458334,0,280.06666)" />
        <path
           style="color:#000000;fill:#ececec;strokeWidth:0.793081;strokeLinecap:round;strokeLinejoin:round;-inkscape-stroke:none"
           d="m 2.8105469,315.45117 c -0.4663694,0 -0.8300786,0.40386 -0.8300782,0.87305 v 7.91797 c -4e-7,0.46918 0.3637088,0.875 0.8300782,0.875 H 14.123047 c 0.466369,0 0.830078,-0.40582 0.830078,-0.875 v -7.91797 c 0,-0.46919 -0.363709,-0.87305 -0.830078,-0.87305 z"
           id="path341031" />
        <path
           style="color:#000000;fill:#46a9e7;strokeWidth:0.793081;strokeLinecap:round;strokeLinejoin:round;-inkscape-stroke:none"
           d="m 3.7871094,316.66797 c -0.394934,0 -0.7324328,0.31444 -0.7324219,0.71094 v 5.80859 c -1.6e-6,0.39649 0.337494,0.71094 0.7324219,0.71094 h 9.3593746 c 0.394928,0 0.732424,-0.31445 0.732422,-0.71094 v -5.80859 c 1.1e-5,-0.3965 -0.337488,-0.71094 -0.732422,-0.71094 z"
           id="path341223" />
        <path
           id="path341415"
           style="color:#000000;fill:#349951;strokeWidth:2.99747;strokeLinecap:round;strokeLinejoin:round;-inkscape-stroke:none"
           d="m 43.65625,149.06055 c -0.870391,-1.05215 -2.622941,-1.09305 -3.476562,0.0312 l -6.001954,9.10937 c -0.149242,0.19654 -0.261622,0.18816 -0.414062,0.0215 l -8.990234,-13.74414 c -0.459929,-0.53101 -1.116839,-0.80576 -1.777344,-0.81836 -0.660506,-0.0126 -1.324468,0.23706 -1.802735,0.75195 l -9.648437,12.95312 v 5.61133 c -6e-6,1.49855 1.27689,2.6875 2.769531,2.6875 H 49.6875 c 1.492641,0 2.767586,-1.18895 2.767578,-2.6875 v -3.35351 z"
           transform="matrix(0.26458334,0,0,0.26458334,0,280.06666)"
           sodipodi:nodetypes="cccccsccsssscc" />
        <path
           style="color:#000000;fill:#fed883;strokeWidth:0.793081;strokeLinecap:round;strokeLinejoin:round;-inkscape-stroke:none"
           d="m 8.7714844,317.88672 c -0.4793988,0 -0.8730444,0.39365 -0.8730469,0.87305 -5.4e-6,0.4794 0.3936427,0.875 0.8730469,0.875 0.4794042,0 0.8730522,-0.3956 0.8730469,-0.875 -2.5e-6,-0.4794 -0.3936481,-0.87305 -0.8730469,-0.87305 z"
           id="path542809" />
      </g>
      <path
         id="rect42798"
         style="color:#000000;display:inline;fill:#000000;strokeWidth:0.793081;strokeLinecap:round;strokeLinejoin:round;-inkscape-stroke:none"
         d="m 1.1131104,313.62327 c -0.4663672,0 -0.82992082,0.40363 -0.82992354,0.87281 v 7.91993 c 2.72e-6,0.46919 0.36355634,0.87282 0.82992354,0.87282 h 0.8671305 v 0.95343 c -4e-7,0.46918 0.3640709,0.87488 0.8304404,0.87488 h 0.8671306 v 0.95291 c 2.9e-6,0.46919 0.3635563,0.87334 0.8299233,0.87334 H 15.820223 c 0.466367,0 0.829921,-0.40415 0.829924,-0.87334 v -7.91786 c -3e-6,-0.46918 -0.363557,-0.87488 -0.829924,-0.87488 h -0.86713 v -0.95291 c 0,-0.46919 -0.363555,-0.87334 -0.829924,-0.87334 h -0.86713 v -0.95498 c -10e-7,-0.46918 -0.364073,-0.87281 -0.83044,-0.87281 z m 0,0.52916 H 12.425599 c 0.158387,0 0.300755,0.14002 0.300756,0.34365 v 0.95498 H 2.8106813 c -0.4663695,0 -0.8304408,0.40415 -0.8304404,0.87334 v 6.43526 H 1.1131104 c -0.15838743,0 -0.30075567,-0.14002 -0.30075686,-0.34365 v -7.91993 c 1.19e-6,-0.20363 0.14236943,-0.34365 0.30075686,-0.34365 z m 1.6975709,1.82625 H 14.123169 c 0.158388,0 0.300757,0.14208 0.300757,0.34572 v 7.91786 c 0,0.20363 -0.142369,0.34571 -0.300757,0.34571 H 2.8106813 c -0.1583884,0 -0.3007571,-0.14208 -0.3007569,-0.34571 v -1.21905 -6.69881 c -2e-7,-0.20364 0.1423685,-0.34572 0.3007569,-0.34572 z m 0.9766845,0.68937 c -0.394934,0 -0.7327826,0.31456 -0.7327718,0.71106 v 5.80843 c -1.6e-6,0.39649 0.3378438,0.71107 0.7327718,0.71107 h 9.3591192 c 0.394928,0 0.732257,-0.31458 0.732255,-0.71107 2.91e-4,-1.93576 0,-3.87145 0,-5.80843 1.1e-5,-0.3965 -0.337321,-0.71106 -0.732255,-0.71106 z m 9.3591192,0.52916 c 0.121921,0 0.203091,0.085 0.203088,0.1819 v 4.30103 l -1.798857,-2.17403 c -0.230291,-0.27837 -0.693986,-0.2892 -0.91984,0.008 l -1.588017,2.41019 c -0.039487,0.052 -0.069221,0.0498 -0.1095539,0.006 L 6.5546392,318.29378 C 6.3112604,318.01279 5.8604929,318.00375 5.60741,318.27621 v -10e-4 c -0.00629,0.008 -0.01216,0.0155 -0.017571,0.0238 l -2.0060791,2.70785 v -3.62769 c -2.6e-6,-0.0969 0.081685,-0.1819 0.2036051,-0.1819 z m 1.806608,0.60927 h 0.86713 c 0.158389,0 0.300756,0.14208 0.300757,0.34571 v 7.91786 c -1e-6,0.20365 -0.142368,0.34417 -0.300757,0.34417 H 4.5077352 c -0.1583875,0 -0.3007553,-0.14052 -0.3007566,-0.34417 v -0.95291 h 9.9161904 c 0.466369,0 0.829924,-0.4057 0.829924,-0.87488 z m -6.1815351,0.0801 c -0.4793988,0 -0.8733293,0.39393 -0.8733319,0.87333 -5.3e-6,0.4794 0.3939275,0.87488 0.8733319,0.87488 0.4794041,0 0.8728202,-0.39548 0.8728149,-0.87488 -2.6e-6,-0.4794 -0.3934161,-0.87333 -0.8728149,-0.87333 z m -0.00472,0.53418 c 0.1981404,-0.004 0.3483708,0.14573 0.3483718,0.33915 2.2e-6,0.19341 -0.150229,0.34571 -0.3436482,0.34571 -0.1934194,0 -0.3457176,-0.1523 -0.3457154,-0.34571 1e-6,-0.18738 0.1428514,-0.33465 0.3409918,-0.33915 z m -0.2355723,3.8547 c 0.2447711,0.28238 0.7079718,0.26617 0.9337932,-0.031 l 1.5875012,-2.4102 c 0.0347,-0.0457 0.04731,-0.0419 0.08992,0.01 l 2.2071,2.66754 v 0.67593 c 1e-6,0.0969 -0.08117,0.18138 -0.203088,0.18138 H 3.7873658 c -0.1219184,0 -0.2036056,-0.0844 -0.2036051,-0.18138 v -1.29398 l 2.414323,-3.25665 c 0.026252,-0.0276 0.051376,-0.0417 0.076481,-0.0413 v 10e-6 c 0.025106,2.7e-4 0.050294,0.0146 0.075965,0.0429 z"
         sodipodi:nodetypes="sccscsscsssccscsscsssssscsscsccsccccccscscsccssccsscccccccccccccccsccssscsscsssssscssscccccssssccscccc" />
    </g>
  </g>
</svg>
