<svg width="48" height="48" viewBox="0 0 48 48" fill="none" xmlns="http://www.w3.org/2000/svg">
<g id="ic:round-email">
<path id="Vector" d="M40 8H8C5.8 8 4.02 9.8 4.02 12L4 36C4 38.2 5.8 40 8 40H40C42.2 40 44 38.2 44 36V12C44 9.8 42.2 8 40 8ZM39.2 16.5L25.06 25.34C24.42 25.74 23.58 25.74 22.94 25.34L8.8 16.5C8.59945 16.3874 8.42384 16.2353 8.28378 16.0529C8.14372 15.8705 8.04212 15.6616 7.98515 15.4387C7.92818 15.2159 7.91701 14.9839 7.95231 14.7566C7.98762 14.5294 8.06867 14.3116 8.19056 14.1166C8.31245 13.9216 8.47265 13.7533 8.66145 13.622C8.85026 13.4907 9.06374 13.399 9.28899 13.3526C9.51424 13.3062 9.74657 13.3059 9.97191 13.3519C10.1973 13.3979 10.4109 13.4891 10.6 13.62L24 22L37.4 13.62C37.5891 13.4891 37.8027 13.3979 38.0281 13.3519C38.2534 13.3059 38.4858 13.3062 38.711 13.3526C38.9363 13.399 39.1497 13.4907 39.3385 13.622C39.5274 13.7533 39.6875 13.9216 39.8094 14.1166C39.9313 14.3116 40.0124 14.5294 40.0477 14.7566C40.083 14.9839 40.0718 15.2159 40.0149 15.4387C39.9579 15.6616 39.8563 15.8705 39.7162 16.0529C39.5762 16.2353 39.4005 16.3874 39.2 16.5Z" fill="#997D64"/>
</g>
</svg>
