<svg width="48" height="48" viewBox="0 0 48 48" fill="none" xmlns="http://www.w3.org/2000/svg">
<g id="ic:round-telegram">
<path id="Vector" d="M24 4C12.96 4 4 12.96 4 24C4 35.04 12.96 44 24 44C35.04 44 44 35.04 44 24C44 12.96 35.04 4 24 4ZM33.28 17.6C32.98 20.76 31.68 28.44 31.02 31.98C30.74 33.48 30.18 33.98 29.66 34.04C28.5 34.14 27.62 33.28 26.5 32.54C24.74 31.38 23.74 30.66 22.04 29.54C20.06 28.24 21.34 27.52 22.48 26.36C22.78 26.06 27.9 21.4 28 20.98C28.0139 20.9164 28.012 20.8503 27.9946 20.7876C27.9772 20.7249 27.9447 20.6673 27.9 20.62C27.78 20.52 27.62 20.56 27.48 20.58C27.3 20.62 24.5 22.48 19.04 26.16C18.24 26.7 17.52 26.98 16.88 26.96C16.16 26.94 14.8 26.56 13.78 26.22C12.52 25.82 11.54 25.6 11.62 24.9C11.66 24.54 12.16 24.18 13.1 23.8C18.94 21.26 22.82 19.58 24.76 18.78C30.32 16.46 31.46 16.06 32.22 16.06C32.38 16.06 32.76 16.1 33 16.3C33.2 16.46 33.26 16.68 33.28 16.84C33.26 16.96 33.3 17.32 33.28 17.6Z" fill="#997D64"/>
</g>
</svg>
