<svg width="38" height="39" viewBox="0 0 38 39" fill="none" xmlns="http://www.w3.org/2000/svg">
<g id="Work">
<path id="Vector" d="M30.9795 27.7651L20.1436 26.3438C20.1436 26.3438 19.9405 27.8917 20.4099 30.3152C20.8793 32.7387 21.8373 34.439 21.8373 34.439L27.2552 35.1497C27.2552 35.1497 28.6192 33.754 29.6978 31.5336C30.7764 29.3131 30.9795 27.7651 30.9795 27.7651Z" stroke="#515151" strokeWidth="2" strokeLinecap="round" strokeLinejoin="round"/>
<path id="Vector_2" d="M25.5623 27.0585L27.6943 10.8047" stroke="#515151" strokeWidth="2" strokeLinecap="round"/>
<path id="Vector_3" d="M25.2061 5.75391L31.398 6.56613L29.2408 11.007L26.1449 10.6009L25.2061 5.75391Z" stroke="#515151" strokeWidth="2" strokeLinecap="round" strokeLinejoin="round"/>
<path id="Vector_4" d="M17.5573 3.95668L9.81738 2.94141L9.20822 7.58536L16.9481 8.60064L17.5573 3.95668Z" stroke="#515151" strokeWidth="2" strokeLinecap="round" strokeLinejoin="round"/>
<path id="Vector 1" d="M6.98242 7.45117L6.98242 31.6973L12.3162 32.4961L12.3162 27.8093L14.7542 25.8099L13.7544 20.4357L17.0037 18.6237L15.6915 13.687L18.6284 11.875L19.1045 9.0085L6.98242 7.45117Z" stroke="#515151" strokeWidth="2"/>
</g>
</svg>
